<!DOCTYPE svg PUBLIC "-//W3C//DTD SVG 1.1//EN" "http://www.w3.org/Graphics/SVG/1.1/DTD/svg11.dtd">
<!-- Uploaded to: SVG Repo, www.svgrepo.com, Transformed by: SVG Repo Mixer Tools -->
<svg fill="#000000" version="1.1" id="Capa_1" xmlns="http://www.w3.org/2000/svg" xmlns:xlink="http://www.w3.org/1999/xlink" width="800px" height="800px" viewBox="0 0 607.223 607.224" xml:space="preserve">
<g id="SVGRepo_bgCarrier" stroke-width="0"/>
<g id="SVGRepo_tracerCarrier" stroke-linecap="round" stroke-linejoin="round"/>
<g id="SVGRepo_iconCarrier"> <g> <g> <path d="M37.954,37.954V569.27c0,20.976,16.993,37.954,37.949,37.954h455.415c20.975,0,37.953-16.974,37.953-37.954V37.954 C569.27,16.974,552.296,0,531.317,0H75.902C54.946,0,37.954,16.974,37.954,37.954z M400.731,62.156H510.7v38.25H400.731V62.156z M94.731,62.156H204.7v38.25H94.731V62.156z M81.449,157.781H525.78v407.305H81.449V157.781z"/> <path d="M467.52,224.719H142.692c-10.653,0-19.273,8.745-19.273,19.555c0,10.811,8.621,19.556,19.273,19.556H467.52 c10.652,0,19.273-8.745,19.273-19.556C486.793,233.464,478.172,224.719,467.52,224.719z"/> <path d="M467.52,305.713H142.692c-10.653,0-19.273,8.745-19.273,19.556s8.621,19.556,19.273,19.556H467.52 c10.652,0,19.273-8.745,19.273-19.556S478.172,305.713,467.52,305.713z"/> <path d="M467.52,386.707H142.692c-10.653,0-19.273,8.745-19.273,19.556s8.621,19.556,19.273,19.556H467.52 c10.652,0,19.273-8.745,19.273-19.556S478.172,386.707,467.52,386.707z"/> <path d="M467.52,467.702H142.692c-10.653,0-19.273,8.745-19.273,19.555c0,10.811,8.621,19.556,19.273,19.556H467.52 c10.652,0,19.273-8.745,19.273-19.556C486.793,476.451,478.172,467.702,467.52,467.702z"/> </g> </g> </g>
</svg>