<?xml version="1.0" encoding="utf-8"?>
<svg xmlns="http://www.w3.org/2000/svg" viewBox="0 0 500 500">
  <g id="SVGRepo_bgCarrier" stroke-width="0" transform="matrix(1, 0, 0, 1, 65.126266, 270.934357)"/>
  <g id="SVGRepo_tracerCarrier" stroke-linecap="round" stroke-linejoin="round" transform="matrix(1, 0, 0, 1, 65.126266, 270.934357)"/>
  <g id="SVGRepo_iconCarrier" transform="matrix(21.580809, 0, 0, 21.580809, 25.984846, 34.191925)" style="">
    <rect x="0" fill="none" width="20" height="20"/>
    <g>
      <path d="M5.7 9c.4-2 2.2-3.5 4.3-3.5 1.5 0 2.7.7 3.5 1.8l1.7-2C14 3.9 12.1 3 10 3 6.5 3 3.6 5.6 3.1 9H1l3.5 4L8 9H5.7zm9.8-2L12 11h2.3c-.5 2-2.2 3.5-4.3 3.5-1.5 0-2.7-.7-3.5-1.8l-1.7 1.9C6 16.1 7.9 17 10 17c3.5 0 6.4-2.6 6.9-6H19l-3.5-4z"/>
    </g>
  </g>
  <g id="group-1" stroke-width="0" transform="matrix(1, 0, 0, 1, 205.277786, 292.398987)"/>
  <g id="group-2" stroke-linecap="round" stroke-linejoin="round" transform="matrix(1, 0, 0, 1, 205.277786, 292.398987)"/>
  <g id="group-3" transform="matrix(1, 0, 0, 1, 205.277786, 292.398987)">
    <rect x="0" fill="none" width="20" height="20"/>
    <g>
      <path d="M 35.236 -131.54 C -14.336 -131.54 -54.53 -91.343 -54.53 -41.774 C -54.53 7.794 -14.336 47.99 35.236 47.99 C 84.804 47.99 125 7.794 125 -41.774 C 125 -91.343 84.804 -131.54 35.236 -131.54 Z M 110.039 -66.909 C 107.307 -57.973 100.982 -50.551 92.583 -46.463 C 88.096 -63.319 76.049 -77.123 59.971 -83.864 C 61.266 -88.292 64.06 -92.143 67.848 -94.742 C 63.56 -97.526 57.876 -98.926 54.485 -94.035 C 49.197 -87.156 54.485 -77.98 56.577 -74.09 L 56.577 -72.694 C 51.043 -76.054 46.705 -81.072 44.212 -87.057 C 34.578 -87.356 25.042 -84.984 16.685 -80.173 C 15.816 -85.811 16.363 -91.558 18.28 -96.926 C 25.59 -96.234 32.772 -99.22 37.429 -104.91 C 42.018 -110.1 36.131 -116.68 31.544 -120.67 L 35.134 -120.67 C 48.7 -120.77 62.084 -117.33 73.932 -110.7 C 87.498 -100.66 95.817 -85.06 96.575 -68.206 C 98.967 -68.206 103.557 -73.691 105.649 -77.382 C 107.366 -73.991 108.842 -70.501 110.039 -66.909 Z M 35.236 36.419 C 14.79 15.675 37.729 -0.983 25.262 -15.842 C 16.083 -24.321 2.42 -18.436 -5.758 -28.112 C -8.572 -42.802 -3.096 -57.852 8.506 -67.308 C 13.691 -71.698 48.399 -77.282 62.563 -65.114 C 70.842 -57.983 76.676 -48.418 79.22 -37.787 C 83.808 -37.436 88.376 -38.444 92.385 -40.679 C 96.473 -10.955 60.968 26.547 35.236 36.419 Z M -3.163 -110.7 C 4.676 -113.7 13.551 -110.97 18.378 -104.11 C 14.191 -100.33 9.003 -97.834 3.417 -96.926 C 3.617 -99.86 4.265 -102.76 5.312 -105.51 L -3.163 -110.7 Z" style="fill: rgb(101, 0, 159);"/>
    </g>
  </g>
</svg>