<?xml version="1.0" encoding="UTF-8"?>
<svg version="1.1" xmlns="http://www.w3.org/2000/svg" width="100" height="100">
<path d="M0 0 C0.68634018 -0.00175232 1.37268036 -0.00350464 2.07981873 -0.00531006 C4.36386601 -0.00973355 6.64783659 -0.00678597 8.93188477 -0.00341797 C10.52075719 -0.00409156 12.10962951 -0.00506205 13.69850159 -0.00631714 C17.04022191 -0.00779534 20.38191558 -0.00563822 23.72363281 -0.00097656 C27.98357271 0.00467925 32.24344902 0.00146909 36.5033865 -0.00454903 C39.79187994 -0.00818703 43.08035869 -0.00700055 46.36885262 -0.00442123 C47.93755158 -0.00375872 49.50625192 -0.00455651 51.07494926 -0.00690079 C64.66314097 -0.02272917 64.66314097 -0.02272917 71.29150391 0.38769531 C72.03421036 0.43290314 72.77691681 0.47811096 73.54212952 0.52468872 C76.19095474 1.37054211 77.00988011 2.8036371 78.43579102 5.12939453 C78.9440918 7.08618164 78.9440918 7.08618164 79.13110352 9.15673828 C79.2066748 9.93839355 79.28224609 10.72004883 79.36010742 11.52539062 C79.42633301 12.36408691 79.49255859 13.2027832 79.56079102 14.06689453 C79.63861816 14.9442627 79.71644531 15.82163086 79.79663086 16.72558594 C80.62501232 26.51160171 81.12824739 36.31412964 81.43579102 46.12939453 C81.45915527 46.86077637 81.48251953 47.5921582 81.5065918 48.34570312 C81.85171666 60.68029168 81.85171666 60.68029168 79.43579102 64.12939453 C69.77283252 68.62766831 59.54811856 68.37951429 49.06079102 68.69189453 C48.38603729 68.71207642 47.71128357 68.7322583 47.01608276 68.75305176 C42.1563628 68.89586895 37.29631179 69.01747224 32.43579102 69.12939453 C31.1633252 69.15952637 29.89085937 69.1896582 28.57983398 69.22070312 C25.05258454 69.29419724 21.52609196 69.34230018 17.99829102 69.37939453 C16.94657715 69.40074463 15.89486328 69.42209473 14.8112793 69.4440918 C8.26765649 69.47341388 1.99945054 69.18230669 -3.21826172 64.71240234 C-5.46184423 62.07365955 -5.70504952 59.42177163 -5.86132812 56.09545898 C-5.9012941 55.28643631 -5.94126007 54.47741364 -5.98243713 53.64387512 C-6.02102341 52.76897934 -6.05960968 51.89408356 -6.09936523 50.99267578 C-6.14234238 50.08043747 -6.18531952 49.16819916 -6.229599 48.22831726 C-6.31987088 46.28910786 -6.40799155 44.34979732 -6.49414062 42.41040039 C-6.62420058 39.49806335 -6.76258821 36.5862141 -6.90209961 33.67431641 C-7.99037414 10.30827507 -7.99037414 10.30827507 -7.56420898 1.12939453 C-5.68958597 -0.74522849 -2.49622632 0.001593 0 0 Z M4.43579102 4.12939453 C4.43579102 6.10939453 4.43579102 8.08939453 4.43579102 10.12939453 C6.74579102 10.12939453 9.05579102 10.12939453 11.43579102 10.12939453 C11.43579102 8.14939453 11.43579102 6.16939453 11.43579102 4.12939453 C9.12579102 4.12939453 6.81579102 4.12939453 4.43579102 4.12939453 Z M22.43579102 4.12939453 C22.39307001 5.79551358 22.39515269 7.46322338 22.43579102 9.12939453 C23.4184696 10.33500637 23.4184696 10.33500637 25.28344727 10.22705078 C27.33422852 10.1944987 29.38500977 10.16194661 31.43579102 10.12939453 C31.10579102 8.14939453 30.77579102 6.16939453 30.43579102 4.12939453 C27.79579102 4.12939453 25.15579102 4.12939453 22.43579102 4.12939453 Z M42.43579102 4.12939453 C42.43579102 6.10939453 42.43579102 8.08939453 42.43579102 10.12939453 C45.07579102 10.12939453 47.71579102 10.12939453 50.43579102 10.12939453 C50.43579102 8.14939453 50.43579102 6.16939453 50.43579102 4.12939453 C47.79579102 4.12939453 45.15579102 4.12939453 42.43579102 4.12939453 Z M61.43579102 5.12939453 C61.76579102 6.77939453 62.09579102 8.42939453 62.43579102 10.12939453 C64.41579102 10.12939453 66.39579102 10.12939453 68.43579102 10.12939453 C68.43579102 8.47939453 68.43579102 6.82939453 68.43579102 5.12939453 C66.12579102 5.12939453 63.81579102 5.12939453 61.43579102 5.12939453 Z M-2.56420898 14.12939453 C-2.57014951 16.99251612 -2.57447174 19.85562518 -2.57788086 22.71875 C-2.57971375 23.52221359 -2.58154663 24.32567719 -2.58343506 25.15348816 C-2.58912006 31.5318618 -2.40234176 37.8847042 -2.06420898 44.25439453 C-2.01651367 45.22248047 -1.96881836 46.19056641 -1.91967773 47.18798828 C-1.80512171 49.50201989 -1.68669872 51.81577188 -1.56420898 54.12939453 C24.49948177 54.48083938 50.60981018 54.0639848 76.43579102 50.12939453 C76.52478593 40.94314141 76.59644758 31.74661295 76.18579102 22.56689453 C76.13938477 21.36935547 76.09297852 20.17181641 76.04516602 18.93798828 C75.75273506 16.0924178 75.75273506 16.0924178 73.85064697 14.9680481 C70.55423934 13.82324109 67.67849277 13.89047378 64.1887207 13.90234375 C63.46637238 13.9020517 62.74402405 13.90175964 61.99978638 13.90145874 C59.61895619 13.90284891 57.23844134 13.91839519 54.85766602 13.93408203 C53.20428641 13.93781328 51.55090458 13.94065972 49.89752197 13.94265747 C45.55080028 13.95028515 41.20421273 13.9699262 36.85754395 13.99206543 C32.42010309 14.01254249 27.98264052 14.02166317 23.54516602 14.03173828 C14.84197953 14.05317292 6.13890197 14.08729841 -2.56420898 14.12939453 Z M75.43579102 54.12939453 C74.44579102 54.45939453 73.45579102 54.78939453 72.43579102 55.12939453 C72.43579102 57.43939453 72.43579102 59.74939453 72.43579102 62.12939453 C74.46820828 61.48959604 74.46820828 61.48959604 76.43579102 60.12939453 C77.2475033 57.57419532 77.2475033 57.57419532 77.43579102 55.12939453 C76.77579102 54.79939453 76.11579102 54.46939453 75.43579102 54.12939453 Z M51.43579102 57.12939453 C51.39486164 59.46236886 51.39337378 61.79644678 51.43579102 64.12939453 C54.40579102 64.12939453 57.37579102 64.12939453 60.43579102 64.12939453 C60.43579102 61.48939453 60.43579102 58.84939453 60.43579102 56.12939453 C55.6360836 55.60105737 55.6360836 55.60105737 51.43579102 57.12939453 Z M7.43579102 58.12939453 C7.26891654 60.54585235 7.26891654 60.54585235 7.43579102 63.12939453 C9.33334246 65.47913271 9.33334246 65.47913271 12.56079102 65.25439453 C13.50954102 65.21314453 14.45829102 65.17189453 15.43579102 65.12939453 C15.10579102 62.81939453 14.77579102 60.50939453 14.43579102 58.12939453 C12.12579102 58.12939453 9.81579102 58.12939453 7.43579102 58.12939453 Z M28.43579102 58.12939453 C28.39307001 59.79551358 28.39515269 61.46322338 28.43579102 63.12939453 C29.46985774 64.38888502 29.46985774 64.38888502 31.72094727 64.22705078 C32.6374707 64.21544922 33.55399414 64.20384766 34.49829102 64.19189453 C35.41739258 64.18287109 36.33649414 64.17384766 37.28344727 64.16455078 C37.9937207 64.15294922 38.70399414 64.14134766 39.43579102 64.12939453 C39.10579102 61.81939453 38.77579102 59.50939453 38.43579102 57.12939453 C35.02479934 57.12939453 31.80490788 57.62084859 28.43579102 58.12939453 Z " fill="#000000" transform="translate(12.564208984375,14.87060546875)"/>
<path d="M0 0 C5.32579324 0.76082761 8.48067938 1.3854967 13.1875 3.4375 C14.19167969 3.86933594 15.19585937 4.30117188 16.23046875 4.74609375 C17.14441406 5.15988281 18.05835937 5.57367188 19 6 C20.10794922 6.48146484 20.10794922 6.48146484 21.23828125 6.97265625 C23 8 23 8 25 11 C25.1875 13.4375 25.1875 13.4375 24 16 C21.167983 17.75559425 18.1091736 18.82883147 15 20 C14.12730469 20.38671875 13.25460938 20.7734375 12.35546875 21.171875 C11.49566406 21.54828125 10.63585937 21.9246875 9.75 22.3125 C8.96109375 22.65925781 8.1721875 23.00601563 7.359375 23.36328125 C5 24 5 24 0 23 C0 15.41 0 7.82 0 0 Z M4 5 C4 9.62 4 14.24 4 19 C8.95 17.35 13.9 15.7 19 14 C19 13.01 19 12.02 19 11 C17.25197854 10.18325204 15.50149811 9.37176549 13.75 8.5625 C12.77546875 8.11003906 11.8009375 7.65757813 10.796875 7.19140625 C7.85933419 5.85357797 7.85933419 5.85357797 4 5 Z " fill="#000000" transform="translate(41,38)"/>
</svg>
